<?xml version="1.0" encoding="utf-8"?>
<!-- Generator: Adobe Illustrator 25.4.1, SVG Export Plug-In . SVG Version: 6.00 Build 0)  -->
<svg version="1.1" id="Capa_1" xmlns="http://www.w3.org/2000/svg" xmlns:xlink="http://www.w3.org/1999/xlink" x="0px" y="0px"
	 viewBox="0 0 1336 372.38" style="enable-background:new 0 0 1336 372.38;" xml:space="preserve">
<style type="text/css">
	.st0{fill:#EA1D26;}
	.st1{stroke:#FFFFFF;stroke-miterlimit:10;}
</style>
<path class="st0" d="M480.95,107.88l-3.96-61.97c0,0-24-5.38-48.36-5.38c-24.37,0-101.59,7.88-101.59,113.93
	c0,106.08,86.91,112.63,106.96,112.63c20.06,0,41.92-5.85,45.16-6.91l1.78-61.28c0,0-23.65,8.97-47.3,8.97
	c-23.65,0-42.63-13.87-42.63-54.06c0,0-1.09-54.53,48.71-54.53C439.72,99.28,456.95,98.2,480.95,107.88"/>
<path class="st0" d="M498.84,47.32v210.34h61.3v-79.55h48.7v79.55h61.29V47.32h-61.29v74.89h-49.06V62.76l11.45-8.98
	c0,0,5.37-6.46-3.58-6.46H498.84z"/>
<path class="st0" d="M898.68,47.32v210.34h61.26v-79.55h48.74v79.55h61.29V47.32h-61.29v74.89H959.6V62.76l11.46-8.98
	c0,0,5.36-6.46-3.58-6.46H898.68z"/>
<path class="st0" d="M782.19,263.62c-99.75-7.08-97.4-109.17-97.4-109.17c2.76-112.62,97.4-109.55,97.4-109.55h3.91
	c0,0,91.1-5.07,98.55,103.11c0,0,5.12,106.18-91.09,115.61H782.19z M749.18,156.42c1.2,53.8,35.57,49.86,35.57,49.86
	c36.74-2.74,35.92-52.05,35.92-52.05c-1.57-51.21-35.92-51.21-35.92-51.21h-4.15C748.79,108.13,749.18,156.42,749.18,156.42z"/>
<path class="st0" d="M1182.18,263.62c-99.72-7.08-97.36-109.17-97.36-109.17c2.75-112.62,97.36-109.55,97.36-109.55h3.94
	c0,0,91.09-5.07,98.55,103.11c0,0,5.08,106.18-91.09,115.61H1182.18z M1149.21,156.42c1.17,53.8,35.57,49.86,35.57,49.86
	c36.72-2.74,35.89-52.05,35.89-52.05c-1.57-51.21-35.89-51.21-35.89-51.21h-4.15C1148.81,108.13,1149.21,156.42,1149.21,156.42z"/>
<path class="st0" d="M1316.09,74.13c-5.28,5.29-11.66,7.93-19.14,7.93c-7.47,0-13.85-2.65-19.08-7.93
	c-5.24-5.29-7.84-11.65-7.84-19.19c0-7.41,2.62-13.78,7.91-19.05c5.24-5.26,11.58-7.88,19.01-7.88c7.48,0,13.86,2.63,19.14,7.88
	c5.27,5.26,7.91,11.62,7.91,19.05C1324,62.43,1321.37,68.82,1316.09,74.13 M1280.54,38.54c-4.49,4.54-6.76,10.02-6.76,16.44
	c0,6.49,2.25,12,6.74,16.58c4.51,4.55,10.01,6.84,16.44,6.84c6.45,0,11.94-2.28,16.44-6.84c4.52-4.58,6.79-10.09,6.79-16.58
	c0-6.42-2.27-11.9-6.79-16.44c-4.53-4.55-10.02-6.84-16.44-6.84C1290.56,31.7,1285.1,33.98,1280.54,38.54z M1296.45,40.04
	c3.67,0,6.38,0.36,8.1,1.08c3.05,1.27,4.6,3.77,4.6,7.53c0,2.65-0.97,4.57-2.9,5.84c-1.01,0.66-2.45,1.15-4.28,1.42
	c2.33,0.38,4.03,1.34,5.09,2.93c1.09,1.56,1.61,3.1,1.61,4.57v2.16c0,0.71,0.04,1.44,0.07,2.23c0.07,0.76,0.15,1.29,0.27,1.55
	l0.18,0.35h-4.88c-0.01-0.1-0.07-0.21-0.08-0.3c-0.03-0.1-0.04-0.21-0.07-0.33l-0.12-0.95v-2.33c0-3.43-0.93-5.68-2.79-6.8
	c-1.11-0.61-3.04-0.95-5.82-0.95h-4.11v11.67h-5.23V40.04H1296.45z M1302.09,44.73c-1.31-0.74-3.43-1.11-6.34-1.11h-4.45v10.74h4.7
	c2.23,0,3.89-0.23,5-0.68c2.04-0.8,3.06-2.34,3.06-4.61C1304.06,46.91,1303.4,45.47,1302.09,44.73z"/>
<path class="st0" d="M185.31,51.66c0,21.74-17.62,39.36-39.36,39.36c-21.76,0-39.39-17.62-39.39-39.36
	c0-21.74,17.62-39.37,39.39-39.37C167.69,12.3,185.31,29.92,185.31,51.66"/>
<path class="st0" d="M100.49,209.1c0,21.76-17.63,39.39-39.37,39.39c-21.77,0-39.39-17.63-39.39-39.39
	c0-21.74,17.62-39.38,39.39-39.38C82.86,169.72,100.49,187.36,100.49,209.1"/>
<path class="st0" d="M270.15,209.1c0,21.76-17.62,39.39-39.37,39.39c-21.76,0-39.4-17.63-39.4-39.39c0-21.74,17.64-39.38,39.4-39.38
	C252.53,169.72,270.15,187.36,270.15,209.1"/>
<polygon class="st0" points="61.12,159.4 10.67,108.95 61.12,58.47 111.58,108.95 "/>
<polygon class="st0" points="230.77,159.4 180.33,108.95 230.77,58.47 281.22,108.95 "/>
<polygon class="st0" points="145.94,309.44 95.49,258.99 145.94,208.53 196.39,258.99 "/>
<g>
	<path d="M572.37,312.06c-0.75-1-1.69-1.74-2.8-2.3c-1.28-0.61-2.7-0.86-4.09-0.86c-1.51,0-3,0.3-4.39,0.88
		c-1.31,0.58-2.5,1.37-3.55,2.36c-1.04,1-1.86,2.16-2.49,3.44c-0.66,1.3-1.11,2.67-1.3,4.1c-0.21,1.39-0.19,2.74,0.13,4.1
		c0.26,1.21,0.78,2.34,1.51,3.34c0.73,0.97,1.69,1.74,2.8,2.28c1.26,0.63,2.66,0.87,4.09,0.87c1.49,0,3-0.28,4.39-0.87
		c1.31-0.59,2.49-1.36,3.53-2.37c1.04-0.98,1.86-2.15,2.51-3.42c0.62-1.31,1.07-2.69,1.29-4.13c0.21-1.37,0.19-2.71-0.13-4.08
		C573.6,314.19,573.13,313.05,572.37,312.06z"/>
	<path d="M687.77,319.15c0.19-1.34,0.17-2.65-0.1-3.94c-0.28-1.16-0.73-2.28-1.41-3.26c-0.71-0.93-1.62-1.67-2.7-2.21
		c-1.19-0.61-2.52-0.81-3.89-0.81c-1.43,0-2.87,0.25-4.21,0.84c-1.24,0.58-2.42,1.32-3.38,2.3c-1.01,0.97-1.82,2.08-2.47,3.32
		c-0.61,1.25-1.02,2.58-1.23,3.96c-0.16,1.33-0.12,2.64,0.15,3.94c0.26,1.17,0.69,2.3,1.41,3.24c0.69,0.95,1.59,1.71,2.65,2.21
		c1.24,0.64,2.58,0.85,3.94,0.85c1.47,0,2.87-0.25,4.2-0.85c1.27-0.57,2.43-1.31,3.43-2.29c0.97-0.97,1.77-2.09,2.41-3.32
		C687.17,321.87,687.6,320.53,687.77,319.15z"/>
	<path d="M613.3,310.69c-0.39-0.37-1.02-0.63-1.56-0.77c-0.87-0.28-1.84-0.35-2.75-0.35h-4.12l-1.08,7.74h3.93
		c0.92,0,1.95-0.09,2.87-0.37c0.66-0.18,1.32-0.47,1.87-0.87c0.45-0.32,0.81-0.7,1.07-1.21c0.27-0.48,0.43-1,0.52-1.54
		c0.05-0.5,0.04-1.02-0.07-1.48C613.88,311.38,613.61,311.02,613.3,310.69z"/>
	<path class="st1" d="M341.56,297.35v45.92h921.06l22.11-49.56L341.56,297.35z M452.44,333.54h-4.2l2.79-19.89l-11.12,19.89h-2.44
		l-5.55-20.1l-2.86,20.1h-4.17l3.91-27.93h5.39l5.5,20.28l11.27-20.28h5.38L452.44,333.54z M496.34,309.58h-13.67l-1.07,7.51h12.76
		l-0.5,3.96h-12.79l-1.23,8.53h14.13l-0.54,3.96h-18.35l3.92-27.93h17.92L496.34,309.58z M528.01,325.68
		c-0.15,1-0.44,1.98-0.81,2.91c-0.4,0.98-1,1.95-1.71,2.77c-0.78,0.87-1.73,1.52-2.8,2.06c-1.23,0.59-2.63,0.8-3.98,0.8
		c-1.79,0-3.49-0.4-4.85-1.59c-1.37-1.21-1.88-2.88-1.95-4.66l-0.03-0.64l4.27-0.85l0.06,0.83c0.08,0.77,0.28,1.6,0.85,2.22
		c0.5,0.59,1.37,0.72,2.11,0.72c0.7,0,1.45-0.13,2.06-0.49c0.55-0.32,1.03-0.75,1.38-1.28c0.41-0.57,0.68-1.2,0.87-1.86
		c0.23-0.76,0.38-1.53,0.5-2.29l2.65-18.71h4.22L528.01,325.68z M578.41,319.68c-0.29,2.06-0.94,4.01-1.94,5.83
		c-0.95,1.74-2.2,3.26-3.66,4.58c-1.47,1.28-3.17,2.31-5.02,3.03c-1.89,0.74-3.86,1.1-5.89,1.1c-1.93,0-3.86-0.32-5.63-1.1
		c-1.63-0.72-3.05-1.77-4.2-3.1c-1.17-1.38-1.97-2.94-2.42-4.68c-0.51-1.92-0.55-3.9-0.28-5.86c0.28-2.04,0.88-4.01,1.9-5.82
		c0.95-1.75,2.19-3.3,3.68-4.58c1.45-1.3,3.13-2.32,4.97-3.04c1.9-0.74,3.85-1.11,5.89-1.11c1.94,0,3.86,0.34,5.64,1.13
		c1.63,0.72,3.06,1.73,4.21,3.08c1.17,1.36,1.97,2.95,2.44,4.67C578.64,315.74,578.65,317.72,578.41,319.68z M618.46,313.54
		c-0.33,1.99-1.19,3.69-2.66,5.06c-1.31,1.28-2.94,1.95-4.69,2.25l5.9,12.69h-4.93l-5.54-12.28h-3.32l-1.73,12.28h-4.2l3.94-27.93
		h8.78c2.3,0,4.79,0.43,6.6,1.95C618.39,309.07,618.74,311.29,618.46,313.54z M691.98,333.54h-15.77c-1.9,0-3.74-0.32-5.48-1.05
		c-1.59-0.71-2.97-1.71-4.09-3.03c-1.13-1.34-1.92-2.91-2.36-4.58c-0.5-1.87-0.57-3.81-0.28-5.72c0.27-1.99,0.89-3.92,1.85-5.68
		c0.94-1.7,2.11-3.24,3.58-4.5c1.43-1.28,3.04-2.28,4.85-2.95c1.83-0.73,3.76-1.07,5.71-1.07c1.88,0,3.72,0.32,5.47,1.07
		c1.59,0.69,2.98,1.69,4.11,3.03c1.13,1.33,1.88,2.9,2.33,4.6c0.5,1.84,0.52,3.82,0.25,5.72c-0.34,2.4-1.14,4.69-2.48,6.74
		c-0.92,1.37-2.06,2.54-3.37,3.47h6.22L691.98,333.54z M733.79,323.03c-0.17,1.25-0.5,2.48-0.9,3.65c-0.49,1.33-1.17,2.56-2.11,3.66
		c-0.99,1.17-2.2,2.08-3.58,2.78c-1.65,0.83-3.51,1.1-5.35,1.1c-1.71,0-3.56-0.23-5.06-1.13c-1.21-0.72-2.21-1.67-2.89-2.88
		c-0.62-1.17-1-2.41-1.07-3.75c-0.09-1.21-0.06-2.42,0.1-3.61l2.45-17.21h4.21l-2.5,17.12c-0.15,1-0.21,2.06-0.08,3.03
		c0.13,0.7,0.28,1.45,0.62,2.09c0.23,0.46,0.54,0.9,0.97,1.22c0.38,0.3,0.8,0.55,1.26,0.74c0.38,0.17,0.8,0.27,1.23,0.33
		c0.35,0.05,0.73,0.09,1.12,0.09c0.6,0,1.24-0.11,1.85-0.23c0.77-0.14,1.54-0.5,2.19-0.95c0.84-0.57,1.52-1.43,2.05-2.27
		c0.75-1.24,1.15-2.83,1.32-4.25l2.4-16.91h4.21L733.79,323.03z M775.73,309.58h-13.65l-1.08,7.51h12.75l-0.51,3.96h-12.8
		l-1.23,8.53h14.14l-0.53,3.96h-18.35l3.94-27.93h17.91L775.73,309.58z M842.23,309.58h-13.68l-1.06,7.51h12.74l-0.5,3.96h-12.82
		l-1.2,8.53h14.14l-0.56,3.96h-18.32l3.91-27.93h17.91L842.23,309.58z M876.59,333.54h-16.54l3.96-27.93h4.21l-3.41,23.96h12.33
		L876.59,333.54z M952.32,319.68c-0.27,2.06-0.93,4.01-1.94,5.83c-0.94,1.74-2.19,3.26-3.67,4.58c-1.48,1.28-3.17,2.31-5,3.03
		c-1.91,0.74-3.89,1.1-5.91,1.1c-1.93,0-3.84-0.32-5.62-1.1c-1.62-0.72-3.03-1.77-4.19-3.1c-1.18-1.35-1.97-2.94-2.43-4.68
		c-0.52-1.92-0.54-3.9-0.27-5.86c0.27-2.04,0.9-4.01,1.9-5.82c0.93-1.73,2.19-3.3,3.68-4.58c1.47-1.3,3.15-2.32,4.98-3.04
		c1.88-0.74,3.87-1.11,5.9-1.11c1.93,0,3.83,0.34,5.62,1.13c1.63,0.72,3.05,1.73,4.22,3.08c1.18,1.36,1.96,2.95,2.45,4.67
		C952.54,315.74,952.58,317.72,952.32,319.68z M992.35,313.54c-0.27,1.99-1.17,3.69-2.64,5.09c-1.31,1.25-2.94,1.93-4.7,2.22
		l5.9,12.69h-4.94l-5.52-12.28h-3.31l-1.74,12.28h-4.22l3.97-27.93h8.79c2.29,0,4.78,0.43,6.58,1.95
		C992.31,309.08,992.69,311.29,992.35,313.54z M1014.52,333.54h-4.19l3.93-27.93h4.19L1014.52,333.54z M1041.85,323.76
		c0.3,1.21,0.76,2.37,1.52,3.36c0.72,1,1.7,1.74,2.78,2.28c1.3,0.63,2.69,0.87,4.11,0.87c1.28,0,2.58-0.16,3.84-0.47
		c1.05-0.27,2.07-0.66,3.05-1.15l1.06-7.6h-6.32l0.56-3.96h10.48l-1.95,14.19l-0.34,0.17c-1.69,0.91-3.49,1.59-5.35,2.05
		c-1.76,0.45-3.59,0.72-5.41,0.72c-1.92,0-3.83-0.32-5.6-1.1c-1.64-0.72-3.06-1.77-4.25-3.1c-1.15-1.35-1.96-2.96-2.4-4.68
		c-0.52-1.92-0.56-3.9-0.3-5.86c0.3-2.04,0.89-3.99,1.89-5.82c0.94-1.73,2.2-3.29,3.7-4.59c1.47-1.29,3.15-2.31,4.99-3.03
		c1.88-0.74,3.88-1.11,5.89-1.11c1.88,0,3.86,0.25,5.63,0.95c1.57,0.62,2.93,1.59,4.01,2.88l0.49,0.56l-3.48,2.96l-0.5-0.59
		c-0.69-0.87-1.57-1.56-2.62-2.04c-1.19-0.55-2.55-0.76-3.85-0.76c-1.52,0-3.01,0.3-4.41,0.88c-1.31,0.58-2.5,1.37-3.54,2.36
		c-1.04,1-1.86,2.16-2.5,3.44c-0.66,1.3-1.09,2.67-1.31,4.12C1041.54,321.06,1041.55,322.41,1041.85,323.76z M1087.37,333.54h-4.17
		l3.92-27.93h4.21L1087.37,333.54z M1133.4,333.54h-4.46l-11.73-21.17l-2.98,21.17h-4.2l3.94-27.9h4.5l11.72,20.93l2.97-20.93h4.21
		L1133.4,333.54z M1175.22,333.54l-1.95-6.95h-12.47l-3.89,6.95h-4.89l16.09-27.93h3.61l8.2,27.93H1175.22z M1215.17,333.54h-16.52
		l3.91-27.93h4.24l-3.41,23.96h12.31L1215.17,333.54z"/>
	<polygon points="1162.95,322.65 1172.17,322.65 1169.16,311.48 	"/>
	<path d="M946.29,312.06c-0.77-1-1.71-1.74-2.82-2.3c-1.26-0.61-2.68-0.86-4.09-0.86c-1.51,0-2.98,0.3-4.37,0.88
		c-1.31,0.58-2.51,1.37-3.54,2.36c-1.04,1-1.88,2.16-2.53,3.44c-0.64,1.29-1.07,2.67-1.28,4.1c-0.2,1.39-0.17,2.74,0.13,4.1
		c0.28,1.21,0.76,2.34,1.53,3.34c0.71,0.97,1.68,1.74,2.77,2.28c1.3,0.63,2.7,0.87,4.11,0.87c1.5,0,2.99-0.28,4.39-0.87
		c1.31-0.59,2.47-1.38,3.53-2.37c1.03-0.98,1.87-2.15,2.5-3.42c0.64-1.31,1.09-2.69,1.3-4.13c0.19-1.37,0.19-2.71-0.15-4.08
		C947.52,314.18,947.02,313.05,946.29,312.06z"/>
	<path d="M987.23,310.69c-0.42-0.37-1.02-0.61-1.57-0.77c-0.87-0.28-1.84-0.35-2.76-0.35h-4.11l-1.09,7.74h3.91
		c0.94,0,1.97-0.09,2.87-0.37c0.68-0.16,1.34-0.47,1.89-0.87c0.45-0.32,0.81-0.7,1.07-1.21c0.27-0.48,0.41-1,0.52-1.54
		c0.07-0.5,0.03-0.99-0.08-1.51C987.77,311.38,987.53,311.04,987.23,310.69z"/>
</g>
</svg>
